<svg width="106" height="35" viewBox="0 0 106 35" fill="none" xmlns="http://www.w3.org/2000/svg">
<rect width="106" height="35" rx="4" fill="#F7F7F7"/>
<path fill-rule="evenodd" clip-rule="evenodd" d="M30 13.5H12V15.5H30V13.5ZM25 19.5H12V21.5H25V19.5Z" fill="#2D2D2D"/>
<path d="M52.864 22L49.36 13.36H49.28L49.36 14.16V22H47.6V10.32H49.872L53.6 19.52L53.792 20.32H53.92L54.112 19.52L57.84 10.32H60.048V22H58.288V14.16L58.368 13.36H58.288L54.784 22H52.864ZM66.6006 20.64C67.1126 20.64 67.598 20.6027 68.0566 20.528C68.526 20.4427 68.862 20.3573 69.0646 20.272L69.3846 20.16V21.696C68.7446 22.0053 67.79 22.16 66.5206 22.16C65.1553 22.16 64.1313 21.8027 63.4486 21.088C62.7766 20.3733 62.4406 19.2747 62.4406 17.792C62.4406 14.88 63.7153 13.424 66.2646 13.424C67.3526 13.424 68.2006 13.7227 68.8086 14.32C69.4273 14.9067 69.7633 15.7493 69.8166 16.848L69.8486 18.352H64.1526C64.1526 18.6507 64.174 18.9493 64.2166 19.248C64.27 19.5467 64.318 19.7707 64.3606 19.92L64.4406 20.128C64.4833 20.1707 64.5526 20.2187 64.6486 20.272C64.7446 20.3253 64.974 20.4 65.3366 20.496C65.71 20.592 66.1313 20.64 66.6006 20.64ZM68.0086 15.36C67.614 15.0827 67.0486 14.944 66.3126 14.944C65.5766 14.944 65.0486 15.104 64.7286 15.424C64.4086 15.744 64.2113 16.2827 64.1366 17.04H68.2006C68.2006 16.7093 68.1846 16.4053 68.1526 16.128C68.1206 15.84 68.0886 15.6427 68.0566 15.536L68.0086 15.36ZM77.6483 22V18.384H73.5043V22H71.8563V13.584H73.5043V16.864H77.6483V13.584H79.2963V22H77.6483ZM91.332 14.512C91.9933 15.2267 92.324 16.32 92.324 17.792C92.324 19.264 91.9933 20.3627 91.332 21.088C90.6813 21.8027 89.7427 22.16 88.516 22.16C86.1587 22.16 84.8893 20.928 84.708 18.464H83.348V22H81.7V13.584H83.348V16.944H84.724C84.8307 15.792 85.204 14.9173 85.844 14.32C86.484 13.7227 87.3747 13.424 88.516 13.424C89.7427 13.424 90.6813 13.7867 91.332 14.512ZM88.644 14.944C87.8333 14.944 87.252 15.1573 86.9 15.584C86.548 16 86.372 16.736 86.372 17.792C86.372 18.2613 86.3933 18.6933 86.436 19.088C86.4893 19.472 86.5427 19.7387 86.596 19.888L86.676 20.128C87.0813 20.4693 87.6413 20.64 88.356 20.64C89.1667 20.64 89.748 20.432 90.1 20.016C90.452 19.5893 90.628 18.848 90.628 17.792C90.628 17.3227 90.6013 16.896 90.548 16.512C90.5053 16.1173 90.4573 15.8453 90.404 15.696L90.324 15.456C89.9187 15.1147 89.3587 14.944 88.644 14.944Z" fill="#2D2D2D"/>
</svg>
